{
  "accessors": [
    {
      "bufferView": 1,
      "componentType": 5126,
      "count": 65532,
      "max": [
        0.30724498629570007,
        1.3480422496795654,
        0.88562482595443726
      ],
      "min": [
        -0.31472444534301758,
        -1.9745609760284424,
        -0.84509748220443726
      ],
      "type": "VEC3"
    },
    {
      "bufferView": 1,
      "byteOffset": 786384,
      "componentType": 5126,
      "count": 65532,
      "max": [
        0.99999988079071045,
        0.99993985891342163,
        0.99998962879180908
      ],
      "min": [
        -0.99999988079071045,
        -0.99989223480224609,
        -0.99993282556533813
      ],
      "type": "VEC3"
    },
    {
      "bufferView": 0,
      "componentType": 5125,
      "count": 321333,
      "max": [
        65531
      ],
      "min": [
        0
      ],
      "type": "SCALAR"
    },
    {
      "bufferView": 1,
      "byteOffset": 1572768,
      "componentType": 5126,
      "count": 65532,
      "max": [
        0.32904312014579773,
        1.2342909574508667,
        0.88571065664291382
      ],
      "min": [
        -0.32889360189437866,
        -1.9745609760284424,
        -1.0423611402511597
      ],
      "type": "VEC3"
    },
    {
      "bufferView": 1,
      "byteOffset": 2359152,
      "componentType": 5126,
      "count": 65532,
      "max": [
        0.99996775388717651,
        0.99989598989486694,
        0.99990016222000122
      ],
      "min": [
        -0.9999929666519165,
        -0.99990475177764893,
        -0.99988758563995361
      ],
      "type": "VEC3"
    },
    {
      "bufferView": 0,
      "byteOffset": 1285332,
      "componentType": 5125,
      "count": 329976,
      "max": [
        65531
      ],
      "min": [
        0
      ],
      "type": "SCALAR"
    },
    {
      "bufferView": 1,
      "byteOffset": 3145536,
      "componentType": 5126,
      "count": 65532,
      "max": [
        0.26883050799369812,
        1.9691343307495117,
        0.83031392097473145
      ],
      "min": [
        -0.26819711923599243,
        -1.5745644569396973,
        -1.0303924083709717
      ],
      "type": "VEC3"
    },
    {
      "bufferView": 1,
      "byteOffset": 3931920,
      "componentType": 5126,
      "count": 65532,
      "max": [
        0.99998754262924194,
        0.99999982118606567,
        0.99999094009399414
      ],
      "min": [
        -0.99999427795410156,
        -0.99999678134918213,
        -0.99999237060546875
      ],
      "type": "VEC3"
    },
    {
      "bufferView": 0,
      "byteOffset": 2605236,
      "componentType": 5125,
      "count": 331287,
      "max": [
        65531
      ],
      "min": [
        0
      ],
      "type": "SCALAR"
    },
    {
      "bufferView": 1,
      "byteOffset": 4718304,
      "componentType": 5126,
      "count": 65532,
      "max": [
        0.30724498629570007,
        1.4974043369293213,
        0.8869098424911499
      ],
      "min": [
        -0.30694729089736938,
        -1.9707424640655518,
        -0.83162391185760498
      ],
      "type": "VEC3"
    },
    {
      "bufferView": 1,
      "byteOffset": 5504688,
      "componentType": 5126,
      "count": 65532,
      "max": [
        0.99999779462814331,
        0.99997913837432861,
        0.99999094009399414
      ],
      "min": [
        -1,
        -0.99999260902404785,
        -0.99999338388442993
      ],
      "type": "VEC3"
    },
    {
      "bufferView": 0,
      "byteOffset": 3930384,
      "componentType": 5125,
      "count": 316425,
      "max": [
        65531
      ],
      "min": [
        0
      ],
      "type": "SCALAR"
    },
    {
      "bufferView": 1,
      "byteOffset": 6291072,
      "componentType": 5126,
      "count": 65532,
      "max": [
        0.31478425860404968,
        1.3787244558334351,
        0.8869098424911499
      ],
      "min": [
        -0.29602029919624329,
        -1.9751819372177124,
        -0.95755022764205933
      ],
      "type": "VEC3"
    },
    {
      "bufferView": 1,
      "byteOffset": 7077456,
      "componentType": 5126,
      "count": 65532,
      "max": [
        0.99999982118606567,
        0.99999362230300903,
        0.99998962879180908
      ],
      "min": [
        -0.99998956918716431,
        -0.99987488985061646,
        -0.99999237060546875
      ],
      "type": "VEC3"
    },
    {
      "bufferView": 0,
      "byteOffset": 5196084,
      "componentType": 5125,
      "count": 306225,
      "max": [
        65531
      ],
      "min": [
        0
      ],
      "type": "SCALAR"
    },
    {
      "bufferView": 1,
      "byteOffset": 7863840,
      "componentType": 5126,
      "count": 65532,
      "max": [
        0.30799302458763123,
        1.9658821821212769,
        0.86926490068435669
      ],
      "min": [
        -0.30837547779083252,
        -1.9711799621582031,
        -1.0421943664550781
      ],
      "type": "VEC3"
    },
    {
      "bufferView": 1,
      "byteOffset": 8650224,
      "componentType": 5126,
      "count": 65532,
      "max": [
        0.99999970197677612,
        0.99995946884155273,
        0.99997937679290771
      ],
      "min": [
        -0.99999427795410156,
        -0.99998259544372559,
        -0.99997597932815552
      ],
      "type": "VEC3"
    },
    {
      "bufferView": 0,
      "byteOffset": 6420984,
      "componentType": 5125,
      "count": 286128,
      "max": [
        65531
      ],
      "min": [
        0
      ],
      "type": "SCALAR"
    },
    {
      "bufferView": 1,
      "byteOffset": 9436608,
      "componentType": 5126,
      "count": 65534,
      "max": [
        0.3285163938999176,
        1.9691343307495117,
        0.88446122407913208
      ],
      "min": [
        -0.32860812544822693,
        -1.9741262197494507,
        -1.0417410135269165
      ],
      "type": "VEC3"
    },
    {
      "bufferView": 1,
      "byteOffset": 10223016,
      "componentType": 5126,
      "count": 65534,
      "max": [
        0.99998772144317627,
        0.99999982118606567,
        0.99995368719100952
      ],
      "min": [
        -0.99998956918716431,
        -0.99999678134918213,
        -0.99997609853744507
      ],
      "type": "VEC3"
    },
    {
      "bufferView": 0,
      "byteOffset": 7565496,
      "componentType": 5125,
      "count": 171669,
      "max": [
        65533
      ],
      "min": [
        0
      ],
      "type": "SCALAR"
    },
    {
      "bufferView": 1,
      "byteOffset": 11009424,
      "componentType": 5126,
      "count": 8435,
      "max": [
        0.32606694102287292,
        1.9688923358917236,
        0.88114655017852783
      ],
      "min": [
        -0.32612982392311096,
        -1.9633864164352417,
        -1.0416805744171143
      ],
      "type": "VEC3"
    },
    {
      "bufferView": 1,
      "byteOffset": 11110644,
      "componentType": 5126,
      "count": 8435,
      "max": [
        0.99996137619018555,
        0.99999618530273438,
        0.99987900257110596
      ],
      "min": [
        -0.99997007846832275,
        -0.99988651275634766,
        -0.99997246265411377
      ],
      "type": "VEC3"
    },
    {
      "bufferView": 0,
      "byteOffset": 8252172,
      "componentType": 5125,
      "count": 10413,
      "max": [
        8434
      ],
      "min": [
        0
      ],
      "type": "SCALAR"
    }
  ],
  "asset": {
    "extras": {
      "author": "westerly (https://sketchfab.com/westerly)",
      "license": "CC-BY-4.0 (http://creativecommons.org/licenses/by/4.0/)",
      "source": "https://sketchfab.com/models/a5d0bb8f55dc4f49b103cd20d65e0b17",
      "title": "Feline Skeleton Dec"
    },
    "generator": "Sketchfab-3.18.2",
    "version": "2.0"
  },
  "bufferViews": [
    {
      "buffer": 0,
      "byteLength": 8293824,
      "byteOffset": 0,
      "name": "floatBufferViews",
      "target": 34963
    },
    {
      "buffer": 0,
      "byteLength": 11211864,
      "byteOffset": 8293824,
      "byteStride": 12,
      "name": "floatBufferViews",
      "target": 34962
    }
  ],
  "buffers": [
    {
      "byteLength": 19505688,
      "uri": "scene.bin"
    }
  ],
  "materials": [
    {
      "doubleSided": true,
      "emissiveFactor": [
        0,
        0,
        0
      ],
      "name": "material_0",
      "pbrMetallicRoughness": {
        "baseColorFactor": [
          0.5,
          0.5,
          0.5,
          1
        ],
        "metallicFactor": 0,
        "roughnessFactor": 0.59999999999999998
      }
    }
  ],
  "meshes": [
    {
      "primitives": [
        {
          "attributes": {
            "NORMAL": 1,
            "POSITION": 0
          },
          "indices": 2,
          "material": 0,
          "mode": 4
        }
      ]
    },
    {
      "primitives": [
        {
          "attributes": {
            "NORMAL": 4,
            "POSITION": 3
          },
          "indices": 5,
          "material": 0,
          "mode": 4
        }
      ]
    },
    {
      "primitives": [
        {
          "attributes": {
            "NORMAL": 7,
            "POSITION": 6
          },
          "indices": 8,
          "material": 0,
          "mode": 4
        }
      ]
    },
    {
      "primitives": [
        {
          "attributes": {
            "NORMAL": 10,
            "POSITION": 9
          },
          "indices": 11,
          "material": 0,
          "mode": 4
        }
      ]
    },
    {
      "primitives": [
        {
          "attributes": {
            "NORMAL": 13,
            "POSITION": 12
          },
          "indices": 14,
          "material": 0,
          "mode": 4
        }
      ]
    },
    {
      "primitives": [
        {
          "attributes": {
            "NORMAL": 16,
            "POSITION": 15
          },
          "indices": 17,
          "material": 0,
          "mode": 4
        }
      ]
    },
    {
      "primitives": [
        {
          "attributes": {
            "NORMAL": 19,
            "POSITION": 18
          },
          "indices": 20,
          "material": 0,
          "mode": 4
        }
      ]
    },
    {
      "primitives": [
        {
          "attributes": {
            "NORMAL": 22,
            "POSITION": 21
          },
          "indices": 23,
          "material": 0,
          "mode": 4
        }
      ]
    }
  ],
  "nodes": [
    {
      "children": [
        1
      ],
      "name": "RootNode (gltf orientation matrix)",
      "rotation": [
        -0.70710678118654746,
        -0,
        -0,
        0.70710678118654757
      ]
    },
    {
      "children": [
        2
      ],
      "name": "RootNode (model correction matrix)"
    },
    {
      "children": [
        3,
        4,
        5,
        6,
        7,
        8,
        9,
        10
      ],
      "name": "Feline_Skeleton_dec.OBJ.cleaner"
    },
    {
      "mesh": 0,
      "name": ""
    },
    {
      "mesh": 1,
      "name": ""
    },
    {
      "mesh": 2,
      "name": ""
    },
    {
      "mesh": 3,
      "name": ""
    },
    {
      "mesh": 4,
      "name": ""
    },
    {
      "mesh": 5,
      "name": ""
    },
    {
      "mesh": 6,
      "name": ""
    },
    {
      "mesh": 7,
      "name": ""
    }
  ],
  "scene": 0,
  "scenes": [
    {
      "name": "OSG_Scene",
      "nodes": [
        0
      ]
    }
  ]
}

