{
    "asset" : {
        "generator" : "Khronos glTF Blender I/O v1.1.46",
        "version" : "2.0"
    },
    "extensionsUsed" : [
        "KHR_lights_punctual"
    ],
    "extensionsRequired" : [
        "KHR_lights_punctual"
    ],
    "extensions" : {
        "KHR_lights_punctual" : {
            "lights" : [
                {
                    "color" : [
                        1,
                        1,
                        1
                    ],
                    "intensity" : 1000,
                    "type" : "point",
                    "name" : "Light"
                },
                {
                    "color" : [
                        1,
                        1,
                        1
                    ],
                    "intensity" : 30,
                    "spot" : {
                        "innerConeAngle" : 0.3337942263919169,
                        "outerConeAngle" : 0.39269909262657166
                    },
                    "type" : "spot",
                    "name" : "Spot"
                },
                {
                    "color" : [
                        1,
                        1,
                        1
                    ],
                    "intensity" : 10,
                    "spot" : {
                        "innerConeAngle" : 0.3337942263919169,
                        "outerConeAngle" : 0.39269909262657166
                    },
                    "type" : "spot",
                    "name" : "Spot.001"
                },
                {
                    "color" : [
                        1,
                        1,
                        1
                    ],
                    "intensity" : 10,
                    "spot" : {
                        "innerConeAngle" : 0.3337942263919169,
                        "outerConeAngle" : 0.39269909262657166
                    },
                    "type" : "spot",
                    "name" : "Spot.002"
                }
            ]
        }
    },
    "scene" : 0,
    "scenes" : [
        {
            "name" : "Scene",
            "nodes" : [
                1,
                2,
                3,
                4,
                5,
                6,
                7,
                8,
                9,
                10,
                12,
                14,
                16,
                17
            ]
        }
    ],
    "nodes" : [
        {
            "extensions" : {
                "KHR_lights_punctual" : {
                    "light" : 0
                }
            },
            "name" : "Light_Orientation",
            "rotation" : [
                -0.7071067690849304,
                0,
                0,
                0.7071067690849304
            ]
        },
        {
            "children" : [
                0
            ],
            "name" : "Light",
            "rotation" : [
                -0.04589221999049187,
                0.17264506220817566,
                0.7428479194641113,
                0.645185649394989
            ],
            "translation" : [
                4.076245307922363,
                5.903861999511719,
                -1.0054539442062378
            ]
        },
        {
            "name" : "Camera",
            "rotation" : [
                0.25818848609924316,
                -0.8990172147750854,
                0.20860536396503448,
                -0.2856405973434448
            ],
            "translation" : [
                -4.340362548828125,
                9.266105651855469,
                -6.3946614265441895
            ]
        },
        {
            "mesh" : 0,
            "name" : "Per-bok",
            "rotation" : [
                0.00012361971312202513,
                0.05611944571137428,
                0.005897752474993467,
                0.9984066486358643
            ],
            "translation" : [
                0.017560124397277832,
                0.007807612419128418,
                -0.07582532614469528
            ]
        },
        {
            "mesh" : 1,
            "name" : "Nos"
        },
        {
            "mesh" : 2,
            "name" : "Podo"
        },
        {
            "mesh" : 3,
            "name" : "Pytka",
            "translation" : [
                0.20366370677947998,
                -0.11282515525817871,
                -0.022545576095581055
            ]
        },
        {
            "mesh" : 4,
            "name" : "Zad-bok",
            "translation" : [
                0,
                -0.037426114082336426,
                0
            ]
        },
        {
            "mesh" : 5,
            "name" : "Zad-bok.001",
            "translation" : [
                0,
                -0.037426114082336426,
                0
            ]
        },
        {
            "mesh" : 6,
            "name" : "Torus.001",
            "rotation" : [
                -0.5158193111419678,
                0.593509316444397,
                -0.4870624244213104,
                -0.3800623118877411
            ],
            "scale" : [
                0.05488491803407669,
                0.05488491803407669,
                0.05488491803407669
            ],
            "translation" : [
                -0.4995773434638977,
                1.6175310611724854,
                0.41933444142341614
            ]
        },
        {
            "name" : "Nos.001"
        },
        {
            "extensions" : {
                "KHR_lights_punctual" : {
                    "light" : 1
                }
            },
            "name" : "Spot_Orientation",
            "rotation" : [
                -0.7071067690849304,
                0,
                0,
                0.7071067690849304
            ]
        },
        {
            "children" : [
                11
            ],
            "name" : "Spot",
            "rotation" : [
                -0.2836367189884186,
                0.26072391867637634,
                0.3320007920265198,
                0.8610160946846008
            ],
            "translation" : [
                -16.262880325317383,
                13.377345085144043,
                -5.044377326965332
            ]
        },
        {
            "extensions" : {
                "KHR_lights_punctual" : {
                    "light" : 2
                }
            },
            "name" : "Spot.001_Orientation",
            "rotation" : [
                -0.7071067690849304,
                0,
                0,
                0.7071067690849304
            ]
        },
        {
            "children" : [
                13
            ],
            "name" : "Spot.001",
            "rotation" : [
                -0.48712173104286194,
                0.7040458917617798,
                0.07505915313959122,
                -0.5112709403038025
            ],
            "translation" : [
                -13.526390075683594,
                13.076457023620605,
                13.673357009887695
            ]
        },
        {
            "extensions" : {
                "KHR_lights_punctual" : {
                    "light" : 3
                }
            },
            "name" : "Spot.002_Orientation",
            "rotation" : [
                -0.7071067690849304,
                0,
                0,
                0.7071067690849304
            ]
        },
        {
            "children" : [
                15
            ],
            "name" : "Spot.002",
            "rotation" : [
                -0.4323312044143677,
                -0.49075016379356384,
                0.2919180989265442,
                -0.6978809833526611
            ],
            "translation" : [
                16.874008178710938,
                8.750116348266602,
                5.909400939941406
            ]
        },
        {
            "name" : "BezierCurve.006"
        }
    ],
    "materials" : [
        {
            "doubleSided" : true,
            "emissiveFactor" : [
                0,
                0,
                0
            ],
            "name" : "Material.003",
            "pbrMetallicRoughness" : {
                "baseColorTexture" : {
                    "index" : 0,
                    "texCoord" : 0
                },
                "metallicFactor" : 0,
                "roughnessFactor" : 0.5
            }
        },
        {
            "doubleSided" : true,
            "emissiveFactor" : [
                0,
                0,
                0
            ],
            "name" : "Material.001",
            "pbrMetallicRoughness" : {
                "baseColorTexture" : {
                    "index" : 1,
                    "texCoord" : 0
                },
                "metallicFactor" : 0,
                "roughnessFactor" : 0.5
            }
        },
        {
            "doubleSided" : true,
            "emissiveFactor" : [
                0,
                0,
                0
            ],
            "name" : "Material.002",
            "pbrMetallicRoughness" : {
                "metallicFactor" : 0,
                "roughnessFactor" : 0.5
            }
        },
        {
            "doubleSided" : true,
            "emissiveFactor" : [
                0,
                0,
                0
            ],
            "name" : "Material.007",
            "pbrMetallicRoughness" : {
                "metallicFactor" : 0,
                "roughnessFactor" : 0.5
            }
        },
        {
            "doubleSided" : true,
            "emissiveFactor" : [
                0,
                0,
                0
            ],
            "name" : "Material.006",
            "pbrMetallicRoughness" : {
                "baseColorTexture" : {
                    "index" : 2,
                    "texCoord" : 0
                },
                "metallicFactor" : 0,
                "roughnessFactor" : 0.5
            }
        },
        {
            "doubleSided" : true,
            "emissiveFactor" : [
                0,
                0,
                0
            ],
            "name" : "Material",
            "pbrMetallicRoughness" : {
                "metallicFactor" : 0,
                "roughnessFactor" : 0.5
            }
        }
    ],
    "meshes" : [
        {
            "name" : "PER-BOK",
            "primitives" : [
                {
                    "attributes" : {
                        "POSITION" : 0,
                        "NORMAL" : 1,
                        "TANGENT" : 2,
                        "TEXCOORD_0" : 3
                    },
                    "indices" : 4,
                    "material" : 0
                }
            ]
        },
        {
            "name" : "Plane.002",
            "primitives" : [
                {
                    "attributes" : {
                        "POSITION" : 5,
                        "NORMAL" : 6,
                        "TANGENT" : 7,
                        "TEXCOORD_0" : 8
                    },
                    "indices" : 9,
                    "material" : 1
                }
            ]
        },
        {
            "name" : "Plane.003",
            "primitives" : [
                {
                    "attributes" : {
                        "POSITION" : 10,
                        "NORMAL" : 11,
                        "TEXCOORD_0" : 12
                    },
                    "indices" : 13,
                    "material" : 2
                }
            ]
        },
        {
            "name" : "Plane.004",
            "primitives" : [
                {
                    "attributes" : {
                        "POSITION" : 14,
                        "NORMAL" : 15,
                        "TANGENT" : 16,
                        "TEXCOORD_0" : 17
                    },
                    "indices" : 18,
                    "material" : 3
                }
            ]
        },
        {
            "name" : "Plane.005",
            "primitives" : [
                {
                    "attributes" : {
                        "POSITION" : 19,
                        "NORMAL" : 20,
                        "TANGENT" : 21,
                        "TEXCOORD_0" : 22
                    },
                    "indices" : 23,
                    "material" : 4
                }
            ]
        },
        {
            "name" : "Plane.001",
            "primitives" : [
                {
                    "attributes" : {
                        "POSITION" : 24,
                        "NORMAL" : 25,
                        "TANGENT" : 26,
                        "TEXCOORD_0" : 27
                    },
                    "indices" : 28,
                    "material" : 5
                }
            ]
        },
        {
            "name" : "Torus.001",
            "primitives" : [
                {
                    "attributes" : {
                        "POSITION" : 29,
                        "NORMAL" : 30,
                        "TANGENT" : 31,
                        "TEXCOORD_0" : 32
                    },
                    "indices" : 33
                }
            ]
        }
    ],
    "textures" : [
        {
            "source" : 0
        },
        {
            "sampler" : 0,
            "source" : 0
        },
        {
            "source" : 0
        }
    ],
    "images" : [
        {
            "bufferView" : 5,
            "mimeType" : "image/png",
            "name" : "Untitled"
        }
    ],
    "accessors" : [
        {
            "bufferView" : 0,
            "componentType" : 5126,
            "count" : 1344,
            "max" : [
                0.6289247870445251,
                3.004014492034912,
                0.7555631995201111
            ],
            "min" : [
                -0.7594325542449951,
                0.6711920499801636,
                -0.6345670819282532
            ],
            "type" : "VEC3"
        },
        {
            "bufferView" : 1,
            "componentType" : 5126,
            "count" : 1344,
            "type" : "VEC3"
        },
        {
            "bufferView" : 2,
            "componentType" : 5126,
            "count" : 1344,
            "type" : "VEC4"
        },
        {
            "bufferView" : 3,
            "componentType" : 5126,
            "count" : 1344,
            "type" : "VEC2"
        },
        {
            "bufferView" : 4,
            "componentType" : 5123,
            "count" : 2016,
            "type" : "SCALAR"
        },
        {
            "bufferView" : 6,
            "componentType" : 5126,
            "count" : 1736,
            "max" : [
                0.6418180465698242,
                3.0003294944763184,
                0.7585033178329468
            ],
            "min" : [
                -0.7728593349456787,
                0.32596510648727417,
                -2.0316264629364014
            ],
            "type" : "VEC3"
        },
        {
            "bufferView" : 7,
            "componentType" : 5126,
            "count" : 1736,
            "type" : "VEC3"
        },
        {
            "bufferView" : 8,
            "componentType" : 5126,
            "count" : 1736,
            "type" : "VEC4"
        },
        {
            "bufferView" : 9,
            "componentType" : 5126,
            "count" : 1736,
            "type" : "VEC2"
        },
        {
            "bufferView" : 10,
            "componentType" : 5123,
            "count" : 2604,
            "type" : "SCALAR"
        },
        {
            "bufferView" : 11,
            "componentType" : 5126,
            "count" : 3290,
            "max" : [
                0.7429379224777222,
                0.7919367551803589,
                1.9897732734680176
            ],
            "min" : [
                -0.8445131778717041,
                -0.004961976781487465,
                -2.0844383239746094
            ],
            "type" : "VEC3"
        },
        {
            "bufferView" : 12,
            "componentType" : 5126,
            "count" : 3290,
            "type" : "VEC3"
        },
        {
            "bufferView" : 13,
            "componentType" : 5126,
            "count" : 3290,
            "type" : "VEC2"
        },
        {
            "bufferView" : 14,
            "componentType" : 5123,
            "count" : 16068,
            "type" : "SCALAR"
        },
        {
            "bufferView" : 15,
            "componentType" : 5126,
            "count" : 712,
            "max" : [
                0.511394739151001,
                1.6717463731765747,
                1.9908989667892456
            ],
            "min" : [
                -0.8487545847892761,
                0.5666543245315552,
                1.1068556308746338
            ],
            "type" : "VEC3"
        },
        {
            "bufferView" : 16,
            "componentType" : 5126,
            "count" : 712,
            "type" : "VEC3"
        },
        {
            "bufferView" : 17,
            "componentType" : 5126,
            "count" : 712,
            "type" : "VEC4"
        },
        {
            "bufferView" : 18,
            "componentType" : 5126,
            "count" : 712,
            "type" : "VEC2"
        },
        {
            "bufferView" : 19,
            "componentType" : 5123,
            "count" : 1068,
            "type" : "SCALAR"
        },
        {
            "bufferView" : 20,
            "componentType" : 5126,
            "count" : 1896,
            "max" : [
                0.7397804260253906,
                2.9161550998687744,
                1.9183948040008545
            ],
            "min" : [
                -0.6730301976203918,
                0.41425901651382446,
                -0.09167046844959259
            ],
            "type" : "VEC3"
        },
        {
            "bufferView" : 21,
            "componentType" : 5126,
            "count" : 1896,
            "type" : "VEC3"
        },
        {
            "bufferView" : 22,
            "componentType" : 5126,
            "count" : 1896,
            "type" : "VEC4"
        },
        {
            "bufferView" : 23,
            "componentType" : 5126,
            "count" : 1896,
            "type" : "VEC2"
        },
        {
            "bufferView" : 24,
            "componentType" : 5123,
            "count" : 2844,
            "type" : "SCALAR"
        },
        {
            "bufferView" : 25,
            "componentType" : 5126,
            "count" : 1024,
            "max" : [
                0.7397804260253906,
                2.9974942207336426,
                1.2203090190887451
            ],
            "min" : [
                -0.709072470664978,
                0.46505773067474365,
                -0.08416938781738281
            ],
            "type" : "VEC3"
        },
        {
            "bufferView" : 26,
            "componentType" : 5126,
            "count" : 1024,
            "type" : "VEC3"
        },
        {
            "bufferView" : 27,
            "componentType" : 5126,
            "count" : 1024,
            "type" : "VEC4"
        },
        {
            "bufferView" : 28,
            "componentType" : 5126,
            "count" : 1024,
            "type" : "VEC2"
        },
        {
            "bufferView" : 29,
            "componentType" : 5123,
            "count" : 1536,
            "type" : "SCALAR"
        },
        {
            "bufferView" : 30,
            "componentType" : 5126,
            "count" : 13824,
            "max" : [
                -2.5936999320983887,
                3.547180414199829,
                11.08537769317627
            ],
            "min" : [
                -13.41549015045166,
                -17.70170021057129,
                -22.290224075317383
            ],
            "type" : "VEC3"
        },
        {
            "bufferView" : 31,
            "componentType" : 5126,
            "count" : 13824,
            "type" : "VEC3"
        },
        {
            "bufferView" : 32,
            "componentType" : 5126,
            "count" : 13824,
            "type" : "VEC4"
        },
        {
            "bufferView" : 33,
            "componentType" : 5126,
            "count" : 13824,
            "type" : "VEC2"
        },
        {
            "bufferView" : 34,
            "componentType" : 5123,
            "count" : 20736,
            "type" : "SCALAR"
        }
    ],
    "bufferViews" : [
        {
            "buffer" : 0,
            "byteLength" : 16128,
            "byteOffset" : 0
        },
        {
            "buffer" : 0,
            "byteLength" : 16128,
            "byteOffset" : 16128
        },
        {
            "buffer" : 0,
            "byteLength" : 21504,
            "byteOffset" : 32256
        },
        {
            "buffer" : 0,
            "byteLength" : 10752,
            "byteOffset" : 53760
        },
        {
            "buffer" : 0,
            "byteLength" : 4032,
            "byteOffset" : 64512
        },
        {
            "buffer" : 0,
            "byteLength" : 40135,
            "byteOffset" : 68544
        },
        {
            "buffer" : 0,
            "byteLength" : 20832,
            "byteOffset" : 108680
        },
        {
            "buffer" : 0,
            "byteLength" : 20832,
            "byteOffset" : 129512
        },
        {
            "buffer" : 0,
            "byteLength" : 27776,
            "byteOffset" : 150344
        },
        {
            "buffer" : 0,
            "byteLength" : 13888,
            "byteOffset" : 178120
        },
        {
            "buffer" : 0,
            "byteLength" : 5208,
            "byteOffset" : 192008
        },
        {
            "buffer" : 0,
            "byteLength" : 39480,
            "byteOffset" : 197216
        },
        {
            "buffer" : 0,
            "byteLength" : 39480,
            "byteOffset" : 236696
        },
        {
            "buffer" : 0,
            "byteLength" : 26320,
            "byteOffset" : 276176
        },
        {
            "buffer" : 0,
            "byteLength" : 32136,
            "byteOffset" : 302496
        },
        {
            "buffer" : 0,
            "byteLength" : 8544,
            "byteOffset" : 334632
        },
        {
            "buffer" : 0,
            "byteLength" : 8544,
            "byteOffset" : 343176
        },
        {
            "buffer" : 0,
            "byteLength" : 11392,
            "byteOffset" : 351720
        },
        {
            "buffer" : 0,
            "byteLength" : 5696,
            "byteOffset" : 363112
        },
        {
            "buffer" : 0,
            "byteLength" : 2136,
            "byteOffset" : 368808
        },
        {
            "buffer" : 0,
            "byteLength" : 22752,
            "byteOffset" : 370944
        },
        {
            "buffer" : 0,
            "byteLength" : 22752,
            "byteOffset" : 393696
        },
        {
            "buffer" : 0,
            "byteLength" : 30336,
            "byteOffset" : 416448
        },
        {
            "buffer" : 0,
            "byteLength" : 15168,
            "byteOffset" : 446784
        },
        {
            "buffer" : 0,
            "byteLength" : 5688,
            "byteOffset" : 461952
        },
        {
            "buffer" : 0,
            "byteLength" : 12288,
            "byteOffset" : 467640
        },
        {
            "buffer" : 0,
            "byteLength" : 12288,
            "byteOffset" : 479928
        },
        {
            "buffer" : 0,
            "byteLength" : 16384,
            "byteOffset" : 492216
        },
        {
            "buffer" : 0,
            "byteLength" : 8192,
            "byteOffset" : 508600
        },
        {
            "buffer" : 0,
            "byteLength" : 3072,
            "byteOffset" : 516792
        },
        {
            "buffer" : 0,
            "byteLength" : 165888,
            "byteOffset" : 519864
        },
        {
            "buffer" : 0,
            "byteLength" : 165888,
            "byteOffset" : 685752
        },
        {
            "buffer" : 0,
            "byteLength" : 221184,
            "byteOffset" : 851640
        },
        {
            "buffer" : 0,
            "byteLength" : 110592,
            "byteOffset" : 1072824
        },
        {
            "buffer" : 0,
            "byteLength" : 41472,
            "byteOffset" : 1183416
        }
    ],
    "samplers" : [
        {
            "magFilter" : 9729,
            "minFilter" : 9986
        }
    ],
    "buffers" : [
        {
            "byteLength" : 1224888,
            "uri" : "data:application/octet-stream;base64,"
        }
    ]
}
